<svg xmlns="http://www.w3.org/2000/svg" xmlns:xlink="http://www.w3.org/1999/xlink" width="739" height="739" viewBox="0 0 739 739">
  <defs>
    <rect id="rect-1" width="739" height="739" x="0" y="0"/>
    <mask id="mask-2" maskContentUnits="userSpaceOnUse" maskUnits="userSpaceOnUse">
      <rect width="739" height="739" x="0" y="0" fill="black"/>
      <use fill="white" xlink:href="#rect-1"/>
    </mask>
  </defs>
  <g>
    <use fill="none" xlink:href="#rect-1"/>
    <g mask="url(#mask-2)">
      <path fill="rgb(255,255,255)" fill-rule="evenodd" d="M370.01729422 731.83168182c199.30826392 0 361.59269098-162.80169098 361.59269098-362.10997745 0-199.23440451-162.35830902-362.11000423-361.59269098-362.55340451C170.70899648 7.16829986 7.90729986 168.93539535 7.39 368.24370437c-.51729986 200.78628647 161.84099648 364.10528647 362.62729422 363.58797745zM22.9089993 367.72639535C23.35239817 176.9905021 179.72479422 22.1699993 370.53460324 22.61340099c191.25319098.51729774 346.5909549 157.33310112 346.66488196 349.62089887-1.03461804 190.2925-156.88969098 345.113-348.14288196 344.59569098-191.8444045-.51730902-346.6649045-156.81580902-346.14760394-349.1035955z"/>
      <path fill="rgb(255,255,255)" fill-rule="evenodd" d="M541.83480902 373.78621353c-1.478 26.45616843-3.02992706 50.47366843-5.02519098 74.41728647-3.47330902 51.95173608-43.9705 93.92688196-95.40488196 98.36088196-50.47373608 4.50792706-101.39083157 4.50792706-151.8645451 0-54.90769098-4.50788196-95.40488196-46.9265-98.36088196-101.39076392-1.99530902-40.42330902-1.478-81.43780902-5.02520225-122.3784045-6.50320226-74.9345955 63.92351127-120.3830955 115.35789323-122.37840452 41.45790451-1.478 83.43311804-1.478 124.891 0 66.95338196 2.51259549 116.3925 55.94230902 115.35788196 121.86109549.07392706 18.475.07392706 35.98930902.07392706 51.50830902zm-88.90173608 27.93416843c22.98292706 0 42.93592706-20.47026392 42.4925-42.93588196-.51730902-21.50490451-20.47030902-40.94059549-41.97519098-40.94059549-20.98761804-.51730902-41.97519098 19.50959549-42.4925 40.42328647 0 23.50019098 19.50961804 43.45319098 41.97519098 43.45319098zM233.1545 358.26719098c1.478-22.98288196 23.50019098-41.97519098 45.4485-39.97988196 20.47030902 1.55188196 39.46259549 23.50019098 38.428 44.48778647-1.478 23.50021353-22.46559549 41.45790451-45.4485 39.46259549-21.94830902-1.99530902-39.906-22.46557294-38.428-43.9705z"/>
      <path fill="rgb(255,255,255)" fill-rule="evenodd" d="M568.8083 448.6469c0-45.4485-.5173-83.4331 0-121.8611 1.9953-81.8812-58.4549-148.8346-140.8534-153.3425-42.4925-1.9953-84.9111-1.9953-127.3297 0-66.4361 3.4733-148.8346 61.4109-141.8141 150.3126 3.0299 38.9453.5173 78.4079.5173 125.3344-13.9671-44.9312-16.4797-83.8765-15.519-123.3391 5.0252-154.3032 150.8299-253.6987 296.7085-203.2989 87.4237 30.0034 149.3519 124.3737 143.366 217.7833-2.1431 34.5113-.5912 68.9487-15.0756 108.4113z"/>
      <path fill="rgb(255,255,255)" fill-rule="evenodd" d="M612.2615 310.8234c11.9718 24.4609 11.9718 49.4391 0 74.4173v-74.4173z"/>
      <path fill="rgb(255,255,255)" fill-rule="evenodd" d="M116.762 394.2565c-13.4498-19.953-8.4985-42.4925-9.9765-69.3921 16.997 25.4216 7.9812 47.8872 9.9765 69.3921z"/>
    </g>
  </g>
</svg>
